<svg width="345" height="43" viewBox="0 0 345 43" fill="none" xmlns="http://www.w3.org/2000/svg">
<path d="M344.333 3.05699C344.854 3.24076 345.127 3.81195 344.943 4.33276L341.948 12.8199C341.764 13.3407 341.193 13.6139 340.672 13.4301C340.152 13.2463 339.878 12.6752 340.062 12.1544L342.724 4.61025L335.18 1.94819C334.659 1.76442 334.386 1.19323 334.57 0.672424C334.754 0.151611 335.325 -0.121609 335.846 0.0621681L344.333 3.05699ZM1.38205 3.07586C2.83964 3.67845 4.40472 4.30956 6.07117 4.96511L5.33901 6.82628C3.6627 6.16684 2.08694 5.53144 0.617947 4.92414L1.38205 3.07586ZM15.6202 8.57392C18.6237 9.66767 21.8312 10.8004 25.2218 11.9584L24.5754 13.8511C21.1725 12.6889 17.9523 11.5516 14.9359 10.4532L15.6202 8.57392ZM34.9011 15.1669C38.0336 16.1748 41.2832 17.1918 44.6372 18.2095L44.0565 20.1233C40.6917 19.1023 37.4315 18.082 34.2885 17.0707L34.9011 15.1669ZM54.4266 21.0929C57.6314 22.0087 60.912 22.9186 64.2589 23.8165L63.7406 25.7482C60.3831 24.8474 57.0921 23.9346 53.8771 23.016L54.4266 21.0929ZM74.121 26.3757C77.3783 27.1923 80.6862 27.993 84.0368 28.7727L83.5835 30.7207C80.2215 29.9383 76.9026 29.1349 73.6347 28.3157L74.121 26.3757ZM93.9886 30.9966C97.2875 31.7029 100.619 32.3851 103.976 33.0387L103.594 35.0018C100.224 34.3458 96.8804 33.6611 93.5699 32.9522L93.9886 30.9966ZM114.004 34.8893C117.341 35.4706 120.696 36.0199 124.062 36.533L123.76 38.5102C120.38 37.9949 117.011 37.4432 113.661 36.8596L114.004 34.8893ZM134.154 37.955C137.525 38.3902 140.901 38.7852 144.275 39.1356L144.069 41.1249C140.677 40.7727 137.285 40.3758 133.898 39.9386L134.154 37.955ZM154.419 40.0517C157.819 40.3113 161.21 40.5211 164.586 40.6767L164.494 42.6746C161.097 42.518 157.686 42.3069 154.267 42.0459L154.419 40.0517ZM174.761 40.9779C176.461 40.9991 178.156 41.0052 179.844 40.9955L179.856 42.9955C178.155 43.0052 176.448 42.9991 174.736 42.9777L174.761 40.9779ZM179.844 40.9955C181.604 40.9854 183.365 40.9589 185.126 40.9168L185.174 42.9162C183.401 42.9586 181.628 42.9853 179.856 42.9955L179.844 40.9955ZM195.685 40.4805C199.207 40.2753 202.723 40.0121 206.226 39.6961L206.405 41.688C202.882 42.0059 199.346 42.2706 195.802 42.4771L195.685 40.4805ZM216.741 38.5884C220.256 38.166 223.752 37.6946 227.223 37.1796L227.516 39.158C224.028 39.6756 220.514 40.1494 216.979 40.5741L216.741 38.5884ZM237.661 35.4899C241.161 34.8766 244.629 34.223 248.055 33.5349L248.449 35.4957C245.007 36.187 241.523 36.8436 238.006 37.4599L237.661 35.4899ZM258.406 31.3278C261.892 30.5416 265.326 29.7242 268.7 28.882L269.185 30.8224C265.796 31.6682 262.347 32.4892 258.846 33.2788L258.406 31.3278ZM278.935 26.2065C282.406 25.2579 285.8 24.2887 289.108 23.3069L289.677 25.2242C286.356 26.2101 282.948 27.1833 279.462 28.1358L278.935 26.2065ZM299.218 20.1848C302.69 19.0705 306.042 17.9511 309.261 16.8375L309.915 18.7276C306.682 19.846 303.316 20.9702 299.829 22.0891L299.218 20.1848ZM319.219 13.2593C322.724 11.951 326.015 10.6688 329.07 9.43186L329.821 11.2856C326.748 12.5296 323.44 13.8185 319.918 15.133L319.219 13.2593ZM338.798 5.3011C340.519 4.53107 342.112 3.79447 343.568 3.09789L344.432 4.9021C342.958 5.60673 341.35 6.35049 339.614 7.12682L338.798 5.3011Z" fill="#E23D3D"/>
</svg>
