<svg width="374" height="44" viewBox="0 0 374 44" fill="none" xmlns="http://www.w3.org/2000/svg">
<path d="M373.362 39.9323C373.877 39.7326 374.132 39.1533 373.932 38.6384L370.678 30.2475C370.478 29.7326 369.899 29.477 369.384 29.6768C368.869 29.8765 368.613 30.4558 368.813 30.9707L371.706 38.4293L364.247 41.3223C363.733 41.522 363.477 42.1013 363.677 42.6162C363.876 43.1312 364.456 43.3867 364.971 43.1869L373.362 39.9323ZM1.35619 39.9344C2.79664 39.3853 4.33376 38.8126 5.96255 38.2193L5.27804 36.3401C3.64061 36.9366 2.09417 37.5127 0.643814 38.0656L1.35619 39.9344ZM15.3209 34.9347C18.2756 33.9327 21.4231 32.8955 24.7454 31.8339L24.1367 29.9288C20.8035 30.9939 17.6448 32.0348 14.6786 33.0407L15.3209 34.9347ZM34.207 28.8923C37.2664 27.9667 40.4384 27.0308 43.7124 26.0912L43.1607 24.1688C39.8775 25.111 36.6963 26.0496 33.6278 26.978L34.207 28.8923ZM53.2701 23.4202C56.3945 22.5701 59.5937 21.7222 62.8597 20.8813L62.361 18.9445C59.086 19.7877 55.878 20.6379 52.745 21.4903L53.2701 23.4202ZM72.4741 18.4755C75.6444 17.7053 78.8664 16.9452 82.1336 16.1993L81.6885 14.2495C78.412 14.9975 75.181 15.7597 72.0019 16.5321L72.4741 18.4755ZM91.8112 14.0621C95.0158 13.3784 98.2559 12.7113 101.526 12.0643L101.137 10.1023C97.8577 10.7514 94.6079 11.4204 91.3939 12.1061L91.8112 14.0621ZM111.268 10.2141C114.502 9.62594 117.759 9.06002 121.034 8.51955L120.708 6.54625C117.422 7.08854 114.155 7.65632 110.91 8.24636L111.268 10.2141ZM130.831 6.98847C134.093 6.50782 137.367 6.05511 140.648 5.6334L140.393 3.64972C137.1 4.07305 133.814 4.52746 130.54 5.00983L130.831 6.98847ZM150.49 4.46609C153.777 4.10957 157.066 3.78711 160.351 3.50179L160.178 1.50929C156.878 1.79589 153.575 2.11975 150.274 2.47775L150.49 4.46609ZM170.232 2.75769C173.539 2.54789 176.837 2.37916 180.121 2.25465L180.045 0.256088C176.744 0.381263 173.429 0.550874 170.106 0.761703L170.232 2.75769ZM190.023 2.016C191.676 1.99976 193.324 1.99579 194.966 2.00451L194.977 0.00453418C193.324 -0.00423372 191.666 -0.00023663 190.003 0.0161004L190.023 2.016ZM194.966 2.00451C196.656 2.01347 198.346 2.03522 200.037 2.06932L200.077 0.0697234C198.377 0.0354318 196.677 0.0135537 194.977 0.00453418L194.966 2.00451ZM210.175 2.4186C213.557 2.58236 216.935 2.79217 220.303 3.04449L220.452 1.05008C217.067 0.796487 213.672 0.585583 210.272 0.420943L210.175 2.4186ZM230.411 3.9291C233.79 4.26658 237.154 4.64382 240.5 5.05719L240.745 3.07229C237.384 2.65706 234.004 2.27808 230.61 1.939L230.411 3.9291ZM250.556 6.41368C253.927 6.90609 257.273 7.43229 260.59 7.98843L260.921 6.01596C257.59 5.45758 254.23 4.92919 250.845 4.43469L250.556 6.41368ZM270.58 9.76792C273.941 10.4012 277.264 11.0622 280.545 11.7467L280.953 9.78881C277.66 9.10176 274.324 8.43823 270.951 7.80251L270.58 9.76792ZM290.464 13.9141C293.81 14.6782 297.104 15.4633 300.338 16.2645L300.819 14.3232C297.573 13.5191 294.268 12.7311 290.909 11.9643L290.464 13.9141ZM310.181 18.7985C313.522 19.691 316.787 20.5962 319.967 21.5079L320.519 19.5853C317.327 18.6703 314.05 17.7619 310.697 16.8662L310.181 18.7985ZM329.697 24.3942C333.042 25.4202 336.272 26.4464 339.374 27.4639L339.997 25.5635C336.883 24.542 333.641 23.512 330.284 22.4821L329.697 24.3942ZM348.995 30.7292C352.383 31.9193 355.57 33.0833 358.536 34.2062L359.244 32.3358C356.262 31.207 353.061 30.0375 349.658 28.8422L348.995 30.7292ZM367.969 37.9377C369.628 38.6261 371.172 39.2868 372.596 39.915L373.404 38.085C371.965 37.4504 370.406 36.7839 368.735 36.0905L367.969 37.9377Z" fill="#E23D3D"/>
</svg>
