<svg width="30" height="34" viewBox="0 0 30 34" fill="none" xmlns="http://www.w3.org/2000/svg">
<path d="M2.5 33.6666C1.83333 33.6666 1.25 33.4166 0.75 32.9166C0.25 32.4166 0 31.8333 0 31.1666V5.33331C0 4.66665 0.25 4.08331 0.75 3.58331C1.25 3.08331 1.83333 2.83331 2.5 2.83331H5.20833V0.333313H7.91667V2.83331H22.0833V0.333313H24.7917V2.83331H27.5C28.1667 2.83331 28.75 3.08331 29.25 3.58331C29.75 4.08331 30 4.66665 30 5.33331V31.1666C30 31.8333 29.75 32.4166 29.25 32.9166C28.75 33.4166 28.1667 33.6666 27.5 33.6666H2.5ZM2.5 31.1666H27.5V13.25H2.5V31.1666ZM2.5 10.75H27.5V5.33331H2.5V10.75ZM2.5 10.75V5.33331V10.75ZM15 20.3333C14.5278 20.3333 14.1319 20.1736 13.8125 19.8541C13.4931 19.5347 13.3333 19.1389 13.3333 18.6666C13.3333 18.1944 13.4931 17.7986 13.8125 17.4791C14.1319 17.1597 14.5278 17 15 17C15.4722 17 15.8681 17.1597 16.1875 17.4791C16.5069 17.7986 16.6667 18.1944 16.6667 18.6666C16.6667 19.1389 16.5069 19.5347 16.1875 19.8541C15.8681 20.1736 15.4722 20.3333 15 20.3333ZM8.33333 20.3333C7.86111 20.3333 7.46528 20.1736 7.14583 19.8541C6.82639 19.5347 6.66667 19.1389 6.66667 18.6666C6.66667 18.1944 6.82639 17.7986 7.14583 17.4791C7.46528 17.1597 7.86111 17 8.33333 17C8.80556 17 9.20139 17.1597 9.52083 17.4791C9.84028 17.7986 10 18.1944 10 18.6666C10 19.1389 9.84028 19.5347 9.52083 19.8541C9.20139 20.1736 8.80556 20.3333 8.33333 20.3333ZM21.6667 20.3333C21.1944 20.3333 20.7986 20.1736 20.4792 19.8541C20.1597 19.5347 20 19.1389 20 18.6666C20 18.1944 20.1597 17.7986 20.4792 17.4791C20.7986 17.1597 21.1944 17 21.6667 17C22.1389 17 22.5347 17.1597 22.8542 17.4791C23.1736 17.7986 23.3333 18.1944 23.3333 18.6666C23.3333 19.1389 23.1736 19.5347 22.8542 19.8541C22.5347 20.1736 22.1389 20.3333 21.6667 20.3333ZM15 27C14.5278 27 14.1319 26.8403 13.8125 26.5208C13.4931 26.2014 13.3333 25.8055 13.3333 25.3333C13.3333 24.8611 13.4931 24.4653 13.8125 24.1458C14.1319 23.8264 14.5278 23.6666 15 23.6666C15.4722 23.6666 15.8681 23.8264 16.1875 24.1458C16.5069 24.4653 16.6667 24.8611 16.6667 25.3333C16.6667 25.8055 16.5069 26.2014 16.1875 26.5208C15.8681 26.8403 15.4722 27 15 27ZM8.33333 27C7.86111 27 7.46528 26.8403 7.14583 26.5208C6.82639 26.2014 6.66667 25.8055 6.66667 25.3333C6.66667 24.8611 6.82639 24.4653 7.14583 24.1458C7.46528 23.8264 7.86111 23.6666 8.33333 23.6666C8.80556 23.6666 9.20139 23.8264 9.52083 24.1458C9.84028 24.4653 10 24.8611 10 25.3333C10 25.8055 9.84028 26.2014 9.52083 26.5208C9.20139 26.8403 8.80556 27 8.33333 27ZM21.6667 27C21.1944 27 20.7986 26.8403 20.4792 26.5208C20.1597 26.2014 20 25.8055 20 25.3333C20 24.8611 20.1597 24.4653 20.4792 24.1458C20.7986 23.8264 21.1944 23.6666 21.6667 23.6666C22.1389 23.6666 22.5347 23.8264 22.8542 24.1458C23.1736 24.4653 23.3333 24.8611 23.3333 25.3333C23.3333 25.8055 23.1736 26.2014 22.8542 26.5208C22.5347 26.8403 22.1389 27 21.6667 27Z" fill="#E23D3D"/>
</svg>