<svg width="28" height="34" viewBox="0 0 28 34" fill="none" xmlns="http://www.w3.org/2000/svg">
<path d="M14 16.5833C14.8055 16.5833 15.493 16.2986 16.0625 15.7291C16.6319 15.1597 16.9166 14.4722 16.9166 13.6666C16.9166 12.8611 16.6319 12.1736 16.0625 11.6041C15.493 11.0347 14.8055 10.75 14 10.75C13.1944 10.75 12.5069 11.0347 11.9375 11.6041C11.368 12.1736 11.0833 12.8611 11.0833 13.6666C11.0833 14.4722 11.368 15.1597 11.9375 15.7291C12.5069 16.2986 13.1944 16.5833 14 16.5833ZM14 30.375C17.6944 27.0139 20.4236 23.9653 22.1875 21.2291C23.9513 18.493 24.8333 16.0833 24.8333 14C24.8333 10.7222 23.7847 8.04165 21.6875 5.95831C19.5902 3.87498 17.0277 2.83331 14 2.83331C10.9722 2.83331 8.40968 3.87498 6.31246 5.95831C4.21524 8.04165 3.16663 10.7222 3.16663 14C3.16663 16.0833 4.0694 18.493 5.87496 21.2291C7.68051 23.9653 10.3888 27.0139 14 30.375ZM14 33.6666C9.52774 29.8611 6.18746 26.3264 3.97913 23.0625C1.77079 19.7986 0.666626 16.7778 0.666626 14C0.666626 9.83331 2.0069 6.51387 4.68746 4.04165C7.36801 1.56942 10.4722 0.333313 14 0.333313C17.5277 0.333313 20.6319 1.56942 23.3125 4.04165C25.993 6.51387 27.3333 9.83331 27.3333 14C27.3333 16.7778 26.2291 19.7986 24.0208 23.0625C21.8125 26.3264 18.4722 29.8611 14 33.6666Z" fill="#E23D3D"/>
</svg>