<svg width="29" height="31" viewBox="0 0 29 31" fill="none" xmlns="http://www.w3.org/2000/svg">
<path d="M5.24996 20.9167V19.0417H0.666626V16.5417H9.83329V12.1667H1.95829C1.62496 12.1667 1.32635 12.0417 1.06246 11.7917C0.798571 11.5417 0.666626 11.2362 0.666626 10.8751V4.04175C0.666626 3.68064 0.791626 3.38203 1.04163 3.14591C1.29163 2.9098 1.58329 2.79175 1.91663 2.79175H5.24996V0.916748H7.74996V2.79175H12.3333V5.29175H3.16663V9.66675H11.0416C11.4027 9.66675 11.7083 9.7848 11.9583 10.0209C12.2083 10.257 12.3333 10.5695 12.3333 10.9584V17.7917C12.3333 18.1251 12.2152 18.4167 11.9791 18.6667C11.743 18.9167 11.4444 19.0417 11.0833 19.0417H7.74996V20.9167H5.24996ZM17.25 30.9167L10.1666 23.8334L11.9166 22.0834L17.25 27.4167L27.25 17.4167L29 19.1667L17.25 30.9167Z" fill="#E23D3D"/>
</svg>
