<svg width="30" height="40" viewBox="0 0 30 40" fill="none" xmlns="http://www.w3.org/2000/svg">
<path d="M8.33333 9.66667L3.91667 5.25L5.66667 3.5L10.0833 7.91667L8.33333 9.66667ZM21.6667 9.66667L19.9167 7.91667L24.3333 3.5L26.0833 5.25L21.6667 9.66667ZM13.75 7.5V0H16.25V7.5H13.75ZM1.25 40C0.888889 40 0.590278 39.8819 0.354167 39.6458C0.118056 39.4097 0 39.1111 0 38.75V25.25L3.54167 14.5833C3.68056 14.1944 3.90972 13.8889 4.22917 13.6667C4.54861 13.4444 4.91667 13.3333 5.33333 13.3333H24.6667C25.0833 13.3333 25.4514 13.4444 25.7708 13.6667C26.0903 13.8889 26.3194 14.1944 26.4583 14.5833L30 25.25V38.75C30 39.1111 29.8819 39.4097 29.6458 39.6458C29.4097 39.8819 29.1111 40 28.75 40H27.875C27.5139 40 27.2222 39.8819 27 39.6458C26.7778 39.4097 26.6667 39.1111 26.6667 38.75V36.5H3.33333V38.75C3.33333 39.1111 3.21528 39.4097 2.97917 39.6458C2.74306 39.8819 2.44444 40 2.08333 40H1.25ZM3.45833 22.75H26.5417L24.25 15.8333H5.75L3.45833 22.75ZM2.5 34V25.25V34ZM6.91667 31.9167C7.55556 31.9167 8.09028 31.6944 8.52083 31.25C8.95139 30.8056 9.16667 30.2778 9.16667 29.6667C9.16667 29.0278 8.95139 28.4792 8.52083 28.0208C8.09028 27.5625 7.55556 27.3333 6.91667 27.3333C6.27778 27.3333 5.72917 27.5625 5.27083 28.0208C4.8125 28.4792 4.58333 29.0278 4.58333 29.6667C4.58333 30.3056 4.8125 30.8403 5.27083 31.2708C5.72917 31.7014 6.27778 31.9167 6.91667 31.9167ZM23.125 31.9167C23.7639 31.9167 24.3125 31.6944 24.7708 31.25C25.2292 30.8056 25.4583 30.2778 25.4583 29.6667C25.4583 29.0278 25.2292 28.4792 24.7708 28.0208C24.3125 27.5625 23.7639 27.3333 23.125 27.3333C22.4861 27.3333 21.9514 27.5625 21.5208 28.0208C21.0903 28.4792 20.875 29.0278 20.875 29.6667C20.875 30.3056 21.0972 30.8403 21.5417 31.2708C21.9861 31.7014 22.5139 31.9167 23.125 31.9167ZM2.5 34H27.5V25.25H2.5V34Z" fill="#E23D3D"/>
</svg>
