<svg width="38" height="28" viewBox="0 0 38 28" fill="none" xmlns="http://www.w3.org/2000/svg">
<path d="M21.5 16.5001C20.1111 16.5001 18.9305 16.014 17.9583 15.0417C16.9861 14.0695 16.5 12.889 16.5 11.5001C16.5 10.1112 16.9861 8.93064 17.9583 7.95841C18.9305 6.98619 20.1111 6.50008 21.5 6.50008C22.8888 6.50008 24.0694 6.98619 25.0416 7.95841C26.0138 8.93064 26.5 10.1112 26.5 11.5001C26.5 12.889 26.0138 14.0695 25.0416 15.0417C24.0694 16.014 22.8888 16.5001 21.5 16.5001ZM8.16663 22.3334C7.47218 22.3334 6.8819 22.0904 6.39579 21.6042C5.90968 21.1181 5.66663 20.5279 5.66663 19.8334V3.16675C5.66663 2.4723 5.90968 1.88203 6.39579 1.39591C6.8819 0.909804 7.47218 0.666748 8.16663 0.666748H34.8333C35.5277 0.666748 36.118 0.909804 36.6041 1.39591C37.0902 1.88203 37.3333 2.4723 37.3333 3.16675V19.8334C37.3333 20.5279 37.0902 21.1181 36.6041 21.6042C36.118 22.0904 35.5277 22.3334 34.8333 22.3334H8.16663ZM12.3333 19.8334H30.6666C30.6666 18.6667 31.0694 17.6806 31.875 16.8751C32.6805 16.0695 33.6666 15.6667 34.8333 15.6667V7.33341C33.6666 7.33341 32.6805 6.93064 31.875 6.12508C31.0694 5.31953 30.6666 4.33341 30.6666 3.16675H12.3333C12.3333 4.33341 11.9305 5.31953 11.125 6.12508C10.3194 6.93064 9.33329 7.33341 8.16663 7.33341V15.6667C9.33329 15.6667 10.3194 16.0695 11.125 16.8751C11.9305 17.6806 12.3333 18.6667 12.3333 19.8334ZM32.3333 27.3334H3.16663C2.47218 27.3334 1.8819 27.0904 1.39579 26.6042C0.909682 26.1181 0.666626 25.5279 0.666626 24.8334V5.66675H3.16663V24.8334H32.3333V27.3334ZM8.16663 19.8334V3.16675V19.8334Z" fill="#E23D3D"/>
</svg>
