<svg width="34" height="34" viewBox="0 0 34 34" fill="none" xmlns="http://www.w3.org/2000/svg">
<path d="M20.2917 32.9583C19.7917 33.4583 19.1875 33.7083 18.4792 33.7083C17.7709 33.7083 17.1667 33.4583 16.6667 32.9583L1.04171 17.3333C0.763929 17.0555 0.57643 16.7638 0.479208 16.4583C0.381985 16.1527 0.333374 15.8333 0.333374 15.4999V2.83325C0.333374 2.11103 0.569485 1.51381 1.04171 1.04159C1.51393 0.569363 2.11115 0.333252 2.83337 0.333252H15.5C15.8334 0.333252 16.1667 0.381863 16.5 0.479085C16.8334 0.576308 17.1389 0.763807 17.4167 1.04159L32.9584 16.5833C33.4862 17.111 33.75 17.7291 33.75 18.4374C33.75 19.1458 33.4862 19.7638 32.9584 20.2916L20.2917 32.9583ZM18.5834 31.2499L31.25 18.5833L15.5 2.83325H2.83337V15.4999L18.5834 31.2499ZM7.20837 9.33325C7.79171 9.33325 8.29865 9.11797 8.72921 8.68742C9.15976 8.25686 9.37504 7.74992 9.37504 7.16659C9.37504 6.58325 9.15976 6.07631 8.72921 5.64575C8.29865 5.2152 7.79171 4.99992 7.20837 4.99992C6.62504 4.99992 6.1181 5.2152 5.68754 5.64575C5.25699 6.07631 5.04171 6.58325 5.04171 7.16659C5.04171 7.74992 5.25699 8.25686 5.68754 8.68742C6.1181 9.11797 6.62504 9.33325 7.20837 9.33325Z" fill="#E23D3D"/>
</svg>
