<svg width="34" height="30" viewBox="0 0 34 30" fill="none" xmlns="http://www.w3.org/2000/svg">
<path d="M15.3333 30V27.5H29.4999V14.8333C29.4999 13.2222 29.1527 11.6736 28.4583 10.1875C27.7638 8.70139 26.8333 7.38889 25.6666 6.25C24.4999 5.11111 23.1666 4.20139 21.6666 3.52083C20.1666 2.84028 18.611 2.5 16.9999 2.5C15.3888 2.5 13.8333 2.84028 12.3333 3.52083C10.8333 4.20139 9.49992 5.11111 8.33325 6.25C7.16659 7.38889 6.23603 8.70139 5.54158 10.1875C4.84714 11.6736 4.49992 13.2222 4.49992 14.8333V25H3.66659C2.74992 25 1.9652 24.6736 1.31242 24.0208C0.659641 23.3681 0.333252 22.5833 0.333252 21.6667V18.3333C0.333252 17.6944 0.48603 17.1319 0.791585 16.6458C1.09714 16.1597 1.49992 15.7639 1.99992 15.4583L2.12492 13.25C2.37492 11.2222 2.95131 9.38889 3.85409 7.75C4.75686 6.11111 5.88186 4.72222 7.22908 3.58333C8.57631 2.44444 10.0902 1.5625 11.7708 0.9375C13.4513 0.3125 15.1944 0 16.9999 0C18.8333 0 20.5902 0.3125 22.2708 0.9375C23.9513 1.5625 25.4583 2.45139 26.7916 3.60417C28.1249 4.75694 29.243 6.14583 30.1458 7.77083C31.0485 9.39583 31.6249 11.2083 31.8749 13.2083L31.9999 15.375C32.4999 15.625 32.9027 15.9931 33.2083 16.4792C33.5138 16.9653 33.6666 17.5 33.6666 18.0833V21.9167C33.6666 22.5278 33.5138 23.0694 33.2083 23.5417C32.9027 24.0139 32.4999 24.375 31.9999 24.625V27.5C31.9999 28.1944 31.7569 28.7847 31.2708 29.2708C30.7846 29.7569 30.1944 30 29.4999 30H15.3333ZM11.9999 17.9167C11.6666 17.9167 11.3749 17.7917 11.1249 17.5417C10.8749 17.2917 10.7499 16.9861 10.7499 16.625C10.7499 16.2917 10.8749 16.0069 11.1249 15.7708C11.3749 15.5347 11.6805 15.4167 12.0416 15.4167C12.3749 15.4167 12.6596 15.5347 12.8958 15.7708C13.1319 16.0069 13.2499 16.3056 13.2499 16.6667C13.2499 17 13.1319 17.2917 12.8958 17.5417C12.6596 17.7917 12.361 17.9167 11.9999 17.9167ZM21.9999 17.9167C21.6666 17.9167 21.3749 17.7917 21.1249 17.5417C20.8749 17.2917 20.7499 16.9861 20.7499 16.625C20.7499 16.2917 20.8749 16.0069 21.1249 15.7708C21.3749 15.5347 21.6805 15.4167 22.0416 15.4167C22.3749 15.4167 22.6596 15.5347 22.8958 15.7708C23.1319 16.0069 23.2499 16.3056 23.2499 16.6667C23.2499 17 23.1319 17.2917 22.8958 17.5417C22.6596 17.7917 22.361 17.9167 21.9999 17.9167ZM7.04159 15.75C6.93047 14.1111 7.15964 12.625 7.72908 11.2917C8.29853 9.95833 9.06242 8.82639 10.0208 7.89583C10.9791 6.96528 12.0833 6.25 13.3333 5.75C14.5833 5.25 15.8333 5 17.0833 5C19.611 5 21.736 5.79861 23.4583 7.39583C25.1805 8.99306 26.236 10.9861 26.6249 13.375C24.0138 13.3472 21.7152 12.6458 19.7291 11.2708C17.743 9.89583 16.2083 8.11111 15.1249 5.91667C14.6805 8.16667 13.743 10.1597 12.3124 11.8958C10.8819 13.6319 9.12492 14.9167 7.04159 15.75Z" fill="#E23D3D"/>
</svg>
