<svg width="38" height="36" viewBox="0 0 38 36" fill="none" xmlns="http://www.w3.org/2000/svg">
<path d="M13.4167 35.5L10.2501 30.0833L3.95841 28.7917L4.66675 22.6667L0.666748 18L4.66675 13.375L3.95841 7.25L10.2501 5.95833L13.4167 0.5L19.0001 3.08333L24.5834 0.5L27.7917 5.95833L34.0417 7.25L33.3334 13.375L37.3334 18L33.3334 22.6667L34.0417 28.7917L27.7917 30.0833L24.5834 35.5L19.0001 32.9167L13.4167 35.5ZM14.5417 32.2083L19.0001 30.3333L23.5834 32.2083L26.3751 28.0417L31.2501 26.7917L30.7501 21.8333L34.1251 18L30.7501 14.0833L31.2501 9.125L26.3751 7.95833L23.5001 3.79167L19.0001 5.66667L14.4167 3.79167L11.6251 7.95833L6.75008 9.125L7.25008 14.0833L3.87508 18L7.25008 21.8333L6.75008 26.875L11.6251 28.0417L14.5417 32.2083ZM17.2084 23.5417L26.6667 14.1667L24.7917 12.4583L17.2084 19.9583L13.2501 15.8333L11.3334 17.7083L17.2084 23.5417Z" fill="#E23D3D"/>
</svg>
