<svg width="48" height="48" viewBox="0 0 48 48" fill="none" xmlns="http://www.w3.org/2000/svg">
<circle cx="24" cy="24" r="23.5" stroke="white" stroke-dasharray="5 5"/>
<path d="M27.9839 32V33H28.9839V32H27.9839ZM20.3719 32H19.3719V33H20.3719V32ZM20.3719 31.054L19.9692 30.1387L19.3719 30.4015V31.054H20.3719ZM21.4719 30.636L21.7767 31.5884L21.7879 31.5848L21.799 31.581L21.4719 30.636ZM22.6159 30.306L22.8408 31.2804L23.6159 31.1015V30.306H22.6159ZM22.6159 20.208L21.6182 20.1404L21.6159 20.1741V20.208H22.6159ZM22.7039 18.91L23.7016 18.9776L23.8014 17.5069L22.3979 17.958L22.7039 18.91ZM21.4279 19.174L21.5274 20.169L21.5274 20.169L21.4279 19.174ZM20.0639 19.218L19.0729 19.3519L19.1863 20.1911L20.0327 20.2175L20.0639 19.218ZM19.9539 18.404L19.6985 17.4372L18.8447 17.6627L18.9629 18.5379L19.9539 18.404ZM22.4839 17.568L22.1279 16.6335L22.1229 16.6354L22.4839 17.568ZM25.0359 16.336V15.336H24.7575L24.5191 15.4799L25.0359 16.336ZM25.7839 16.336H26.7839V15.336H25.7839V16.336ZM25.7839 30.306H24.7839V31.0944L25.5506 31.2784L25.7839 30.306ZM26.8839 30.636L26.5452 31.5769L26.5621 31.583L26.5792 31.5884L26.8839 30.636ZM27.9839 31.054H28.9839V30.4015L28.3867 30.1387L27.9839 31.054ZM27.9839 31H20.3719V33H27.9839V31ZM21.3719 32V31.054H19.3719V32H21.3719ZM20.7747 31.9693C21.1106 31.8215 21.4446 31.6947 21.7767 31.5884L21.1672 29.6836C20.7659 29.812 20.3666 29.9638 19.9692 30.1387L20.7747 31.9693ZM21.799 31.581C22.1479 31.4602 22.4951 31.3602 22.8408 31.2804L22.3911 29.3316C21.9741 29.4278 21.5587 29.5478 21.1448 29.691L21.799 31.581ZM23.6159 30.306V20.208H21.6159V30.306H23.6159ZM23.6136 20.2756L23.7016 18.9776L21.7062 18.8424L21.6182 20.1404L23.6136 20.2756ZM22.3979 17.958C22.0561 18.0679 21.7 18.1418 21.3284 18.179L21.5274 20.169C22.0358 20.1182 22.5305 20.0161 23.0099 19.862L22.3979 17.958ZM21.3284 18.179C20.9344 18.2184 20.5235 18.2319 20.0952 18.2185L20.0327 20.2175C20.543 20.2335 21.0414 20.2176 21.5274 20.169L21.3284 18.179ZM21.0549 19.0841L20.9449 18.2701L18.9629 18.5379L19.0729 19.3519L21.0549 19.0841ZM20.2093 19.3708C21.029 19.1543 21.908 18.8632 22.8449 18.5006L22.1229 16.6354C21.2412 16.9768 20.4335 17.243 19.6985 17.4372L20.2093 19.3708ZM22.8399 18.5025C23.8149 18.1311 24.72 17.6949 25.5528 17.1921L24.5191 15.4799C23.7972 15.9158 23.001 16.3009 22.1279 16.6335L22.8399 18.5025ZM25.0359 17.336H25.7839V15.336H25.0359V17.336ZM24.7839 16.336V30.306H26.7839V16.336H24.7839ZM25.5506 31.2784C25.8804 31.3575 26.2119 31.4569 26.5452 31.5769L27.2227 29.6951C26.8226 29.5511 26.4208 29.4305 26.0173 29.3336L25.5506 31.2784ZM26.5792 31.5884C26.9112 31.6947 27.2452 31.8215 27.5812 31.9693L28.3867 30.1387C27.9893 29.9638 27.59 29.812 27.1887 29.6836L26.5792 31.5884ZM26.9839 31.054V32H28.9839V31.054H26.9839Z" fill="white"/>
</svg>