<svg width="48" height="48" viewBox="0 0 48 48" fill="none" xmlns="http://www.w3.org/2000/svg">
<circle cx="24" cy="24" r="23.5" stroke="#C4C4C4" stroke-dasharray="5 5"/>
<path d="M24.3759 30.614L24.7897 31.5244L24.8066 31.5167L24.8231 31.5084L24.3759 30.614ZM25.2339 29.954L24.508 29.2663L24.4982 29.2766L24.4887 29.2872L25.2339 29.954ZM25.8499 28.964L24.929 28.5744L24.9225 28.5896L24.9166 28.605L25.8499 28.964ZM25.8279 26.456L24.9126 26.8587L24.9225 26.8812L24.9335 26.9032L25.8279 26.456ZM25.1679 25.554L24.5036 26.3014L24.5136 26.3103L24.5238 26.3189L25.1679 25.554ZM24.2439 25.048L23.9277 25.9967L23.9457 26.0027L23.9639 26.008L24.2439 25.048ZM21.9119 24.872H20.9119V25.872H21.9119V24.872ZM21.9119 23.992L21.1178 23.3842L20.9119 23.6533V23.992H21.9119ZM25.2119 19.68L24.4947 18.9832L24.4536 19.0255L24.4178 19.0722L25.2119 19.68ZM25.9599 18.91L26.6772 19.6068L26.9599 19.3157V18.91H25.9599ZM25.9599 18.822H26.9599V17.7047L25.8495 17.8281L25.9599 18.822ZM24.7719 18.954V19.954H24.8273L24.8824 19.9479L24.7719 18.954ZM21.4499 18.954V17.954H20.7617L20.5159 18.5969L21.4499 18.954ZM20.5919 21.198V22.198H21.2802L21.526 21.5551L20.5919 21.198ZM19.8439 21.198L18.8711 21.4296L19.0541 22.198H19.8439V21.198ZM19.6019 20.098L18.6165 20.2679L18.6193 20.2843L18.6227 20.3006L19.6019 20.098ZM19.3819 18.822L18.3913 18.9586L18.3936 18.9753L18.3965 18.9919L19.3819 18.822ZM19.2279 17.59L18.2307 17.6639L18.232 17.6822L18.234 17.7004L19.2279 17.59ZM19.1839 16.6V15.6H18.1839V16.6H19.1839ZM28.7759 16.6H29.7759V15.6H28.7759V16.6ZM28.7759 17.678L29.5492 18.312L29.7759 18.0355V17.678H28.7759ZM24.9699 22.32L25.6851 23.0189L25.7156 22.9878L25.7432 22.954L24.9699 22.32ZM24.0239 23.288L23.3087 22.5891L23.0239 22.8805V23.288H24.0239ZM24.0239 23.332H23.0239V24.5589L24.2256 24.3115L24.0239 23.332ZM24.7719 23.178L24.8144 22.1789L24.6912 22.1737L24.5703 22.1985L24.7719 23.178ZM26.6199 23.574L26.223 24.4919L26.2378 24.4982L26.2528 24.5042L26.6199 23.574ZM28.0059 24.498L27.2722 25.1774L27.2852 25.1915L27.2988 25.2051L28.0059 24.498ZM28.8639 25.84L27.9265 26.1882L27.9308 26.1998L27.9355 26.2114L28.8639 25.84ZM28.6879 29.514L27.8117 29.0321L27.807 29.0406L27.8025 29.0492L28.6879 29.514ZM27.4339 31.01L26.82 30.2206L27.4339 31.01ZM25.5859 31.956L25.8659 32.916L25.8751 32.9133L25.8842 32.9105L25.5859 31.956ZM22.0439 32.154L22.2083 31.1676L22.1923 31.1649L22.1761 31.1628L22.0439 32.154ZM20.7899 31.89L20.4958 32.8458L20.5058 32.8488L20.7899 31.89ZM19.7339 31.472L19.2699 32.3578L19.2783 32.3622L19.2867 32.3664L19.7339 31.472ZM18.9419 30.944L17.9998 30.6088L17.7708 31.2523L18.287 31.6997L18.9419 30.944ZM19.7559 28.656V27.656H19.0503L18.8138 28.3208L19.7559 28.656ZM20.3939 28.656L21.1532 28.0052L20.8539 27.656H20.3939V28.656ZM20.7459 29.074L19.9777 29.7142L20.0068 29.749L20.0388 29.7811L20.7459 29.074ZM21.2299 29.602L20.4665 30.2479L20.4805 30.2644L20.4951 30.2803L21.2299 29.602ZM21.7359 30.174L22.4993 29.5281H22.4993L21.7359 30.174ZM22.1539 30.658L21.4065 31.3224L21.6292 31.5729L21.9578 31.6386L22.1539 30.658ZM22.6379 30.768L22.3954 31.7381L22.4042 31.7403L22.4131 31.7424L22.6379 30.768ZM23.3859 31.834C23.8732 31.834 24.3438 31.727 24.7897 31.5244L23.9621 29.7036C23.7627 29.7943 23.5733 29.834 23.3859 29.834V31.834ZM24.8231 31.5084C25.2627 31.2886 25.6489 30.99 25.9792 30.6208L24.4887 29.2872C24.3203 29.4754 24.1345 29.6167 23.9287 29.7196L24.8231 31.5084ZM25.9599 30.6417C26.3195 30.2621 26.5927 29.8185 26.7833 29.323L24.9166 28.605C24.8138 28.8722 24.6763 29.0886 24.508 29.2663L25.9599 30.6417ZM26.7709 29.3536C26.9876 28.8414 27.0919 28.2974 27.0919 27.732H25.0919C25.0919 28.0466 25.0349 28.3239 24.929 28.5744L26.7709 29.3536ZM27.0919 27.732C27.0919 27.1184 26.9838 26.5317 26.7224 26.0088L24.9335 26.9032C25.024 27.0843 25.0919 27.3482 25.0919 27.732H27.0919ZM26.7432 26.0533C26.5266 25.5609 26.2189 25.1317 25.8121 24.7891L24.5238 26.3189C24.6743 26.4457 24.8066 26.6178 24.9126 26.8587L26.7432 26.0533ZM25.8323 24.8066C25.4533 24.4697 25.0127 24.2305 24.5239 24.088L23.9639 26.008C24.1792 26.0708 24.3546 26.169 24.5036 26.3014L25.8323 24.8066ZM24.5602 24.0993C24.1117 23.9498 23.6531 23.872 23.1879 23.872V25.872C23.4268 25.872 23.6721 25.9115 23.9277 25.9967L24.5602 24.0993ZM23.1879 23.872H21.9119V25.872H23.1879V23.872ZM22.9119 24.872V23.992H20.9119V24.872H22.9119ZM22.7061 24.5998L26.0061 20.2878L24.4178 19.0722L21.1178 23.3842L22.7061 24.5998ZM25.9292 20.3768L26.6772 19.6068L25.2427 18.2132L24.4947 18.9832L25.9292 20.3768ZM26.9599 18.91V18.822H24.9599V18.91H26.9599ZM25.8495 17.8281L24.6615 17.9601L24.8824 19.9479L26.0704 19.8159L25.8495 17.8281ZM24.7719 17.954H21.4499V19.954H24.7719V17.954ZM20.5159 18.5969L19.6579 20.8409L21.526 21.5551L22.384 19.3111L20.5159 18.5969ZM20.5919 20.198H19.8439V22.198H20.5919V20.198ZM20.8167 20.9664C20.7464 20.6708 20.6679 20.3143 20.5812 19.8954L18.6227 20.3006C18.712 20.7324 18.7948 21.1092 18.8711 21.4296L20.8167 20.9664ZM20.5874 19.9281C20.5141 19.5028 20.4407 19.0774 20.3674 18.6521L18.3965 18.9919C18.4698 19.4172 18.5431 19.8426 18.6165 20.2679L20.5874 19.9281ZM20.3726 18.6854C20.315 18.2681 20.2648 17.8662 20.2218 17.4796L18.234 17.7004C18.2791 18.1058 18.3315 18.5252 18.3913 18.9586L20.3726 18.6854ZM20.2252 17.5161C20.1969 17.1338 20.1839 16.8304 20.1839 16.6H18.1839C18.1839 16.8976 18.2003 17.2542 18.2307 17.6639L20.2252 17.5161ZM19.1839 17.6H28.7759V15.6H19.1839V17.6ZM27.7759 16.6V17.678H29.7759V16.6H27.7759ZM28.0026 17.044L24.1966 21.686L25.7432 22.954L29.5492 18.312L28.0026 17.044ZM24.2547 21.6211L23.3087 22.5891L24.7391 23.9869L25.6851 23.0189L24.2547 21.6211ZM23.0239 23.288V23.332H25.0239V23.288H23.0239ZM24.2256 24.3115L24.9736 24.1575L24.5703 22.1985L23.8223 22.3525L24.2256 24.3115ZM24.7294 24.1771C25.3167 24.2021 25.8096 24.3131 26.223 24.4919L27.0168 22.6561C26.345 22.3656 25.6058 22.2126 24.8144 22.1789L24.7294 24.1771ZM26.2528 24.5042C26.6862 24.6752 27.0181 24.903 27.2722 25.1774L28.7397 23.8186C28.2604 23.301 27.6684 22.9128 26.9871 22.6438L26.2528 24.5042ZM27.2988 25.2051C27.5769 25.4831 27.7851 25.8075 27.9265 26.1882L29.8014 25.4918C29.5614 24.8458 29.1977 24.2755 28.713 23.7909L27.2988 25.2051ZM27.9355 26.2114C28.0884 26.5938 28.1719 27.0307 28.1719 27.534H30.1719C30.1719 26.8053 30.0501 26.1128 29.7924 25.4686L27.9355 26.2114ZM28.1719 27.534C28.1719 28.1153 28.0456 28.6068 27.8117 29.0321L29.5641 29.9959C29.9756 29.2478 30.1719 28.4194 30.1719 27.534H28.1719ZM27.8025 29.0492C27.5615 29.5083 27.2365 29.8967 26.82 30.2206L28.0479 31.7994C28.6874 31.302 29.1984 30.693 29.5733 29.9788L27.8025 29.0492ZM26.82 30.2206C26.3957 30.5506 25.8891 30.8136 25.2877 31.0015L25.8842 32.9105C26.6908 32.6584 27.4162 32.2907 28.0479 31.7994L26.82 30.2206ZM25.3059 30.996C24.6982 31.1733 24.0522 31.264 23.3639 31.264V33.264C24.2303 33.264 25.0657 33.1494 25.8659 32.916L25.3059 30.996ZM23.3639 31.264C22.9798 31.264 22.5948 31.232 22.2083 31.1676L21.8795 33.1404C22.3731 33.2227 22.8681 33.264 23.3639 33.264V31.264ZM22.1761 31.1628C21.7837 31.1105 21.4168 31.0328 21.074 30.9312L20.5058 32.8488C20.9551 32.9819 21.4242 33.0802 21.9118 33.1452L22.1761 31.1628ZM21.084 30.9342C20.7499 30.8314 20.4497 30.7118 20.1811 30.5776L19.2867 32.3664C19.6635 32.5548 20.0673 32.7139 20.4958 32.8458L21.084 30.9342ZM20.1979 30.5862C19.9456 30.454 19.7485 30.3197 19.5969 30.1883L18.287 31.6997C18.5754 31.9496 18.9063 32.1673 19.2699 32.3578L20.1979 30.5862ZM19.8841 31.2792L20.6981 28.9912L18.8138 28.3208L17.9998 30.6088L19.8841 31.2792ZM19.7559 29.656H20.3939V27.656H19.7559V29.656ZM19.6347 29.3068C19.7183 29.4044 19.8323 29.5397 19.9777 29.7142L21.5142 28.4338C21.3662 28.2563 21.2456 28.113 21.1532 28.0052L19.6347 29.3068ZM20.0388 29.7811C20.1788 29.9211 20.3215 30.0765 20.4665 30.2479L21.9933 28.9561C21.8157 28.7462 21.6357 28.5496 21.453 28.3669L20.0388 29.7811ZM20.4951 30.2803C20.6617 30.4608 20.8209 30.6407 20.9725 30.8199L22.4993 29.5281C22.3283 29.326 22.1501 29.1246 21.9647 28.9237L20.4951 30.2803ZM20.9725 30.8199C21.1372 31.0145 21.2821 31.1824 21.4065 31.3224L22.9013 29.9936C22.7911 29.8696 22.6574 29.7148 22.4993 29.5281L20.9725 30.8199ZM21.9578 31.6386C22.0861 31.6642 22.2317 31.6972 22.3954 31.7381L22.8805 29.7979C22.6922 29.7508 22.5151 29.7104 22.35 29.6774L21.9578 31.6386ZM22.4131 31.7424C22.707 31.8102 23.0401 31.834 23.3859 31.834V29.834C23.1157 29.834 22.9502 29.8138 22.8628 29.7936L22.4131 31.7424Z" fill="#CCCCCC"/>
</svg>
