<svg width="48" height="48" viewBox="0 0 48 48" fill="none" xmlns="http://www.w3.org/2000/svg">
<circle cx="24" cy="24" r="23.5" stroke="#C4C4C4" stroke-dasharray="5 5"/>
<path d="M20.8339 21.484V22.484H21.6233L21.8066 21.7162L20.8339 21.484ZM20.0859 21.484L19.1575 21.8554L19.4089 22.484H20.0859V21.484ZM19.7779 20.714L18.8341 21.0443L18.8413 21.065L18.8495 21.0854L19.7779 20.714ZM19.4479 19.79L18.5081 20.1317L18.5081 20.1317L19.4479 19.79ZM19.1179 18.844L18.1649 19.1472L18.1693 19.1602L19.1179 18.844ZM18.8759 17.964L18.2251 17.2047L17.7696 17.5952L17.8997 18.1809L18.8759 17.964ZM20.8339 16.82L20.4625 15.8915L20.4566 15.8939L20.8339 16.82ZM27.3019 17.502L26.6088 18.2228L26.6156 18.2294L26.6225 18.2358L27.3019 17.502ZM28.1599 18.778L27.2201 19.1197L27.2247 19.1322L27.2295 19.1445L28.1599 18.778ZM27.8299 22.892L28.7177 23.3523L28.7211 23.3457L27.8299 22.892ZM26.3119 25.136L27.0655 25.7934L27.0723 25.7855L26.3119 25.136ZM24.3759 27.072L25.0241 27.8336L25.0333 27.8256L24.3759 27.072ZM22.5059 28.678L23.0643 29.5076L23.1153 29.4733L23.1616 29.433L22.5059 28.678ZM21.3619 29.448L20.8036 28.6184L20.3619 28.9157V29.448H21.3619ZM21.3619 29.536H20.3619V30.6392L21.4598 30.5312L21.3619 29.536ZM22.7039 29.404V28.404H22.6549L22.606 28.4088L22.7039 29.404ZM26.4879 29.404V30.404H27.1419L27.4041 29.8048L26.4879 29.404ZM27.5659 26.94V25.94H26.9119L26.6498 26.5392L27.5659 26.94ZM28.3139 26.94L29.3062 26.816L29.1967 25.94H28.3139V26.94ZM28.4459 28.172L27.4503 28.2653L27.4517 28.2807L27.4537 28.296L28.4459 28.172ZM28.5999 29.602L27.604 29.6925L27.6043 29.6953L28.5999 29.602ZM28.7099 30.966L27.7121 31.0325L27.7123 31.0348L28.7099 30.966ZM28.7539 32V33H29.7539V32H28.7539ZM18.6779 32H17.6779V33H18.6779V32ZM18.6779 30.592L18.0154 29.843L17.6779 30.1415V30.592H18.6779ZM19.9759 29.426L20.6486 30.1659L20.6547 30.1604L20.6606 30.1548L19.9759 29.426ZM21.4499 27.952L22.177 28.6387L22.1863 28.6286L21.4499 27.952ZM22.9239 26.236L22.1449 25.609L22.9239 26.236ZM24.2219 24.41L25.0722 24.9364L25.0777 24.9274L24.2219 24.41ZM25.1239 22.496L24.1841 22.1543L24.1807 22.1638L24.1774 22.1733L25.1239 22.496ZM24.8159 18.646L24.0459 19.284L24.0558 19.296L24.0661 19.3076L24.8159 18.646ZM22.3079 17.92L22.1665 16.93L22.1559 16.9316L22.3079 17.92ZM21.6479 18.074L21.3658 17.1146L20.8098 17.2781L20.6753 17.8418L21.6479 18.074ZM20.8339 20.484H20.0859V22.484H20.8339V20.484ZM21.0144 21.1126C20.9264 20.8926 20.8237 20.6359 20.7064 20.3426L18.8495 21.0854C18.9668 21.3787 19.0695 21.6354 19.1575 21.8554L21.0144 21.1126ZM20.7218 20.3836C20.6177 20.0861 20.5063 19.7743 20.3877 19.4483L18.5081 20.1317C18.6242 20.451 18.7329 20.7552 18.8341 21.0443L20.7218 20.3836ZM20.3877 19.4483C20.2733 19.1336 20.1663 18.8268 20.0666 18.5278L18.1693 19.1602C18.2749 19.4772 18.3879 19.8011 18.5081 20.1317L20.3877 19.4483ZM20.0709 18.5408C19.9751 18.2398 19.903 17.9758 19.8521 17.7471L17.8997 18.1809C17.9662 18.4802 18.0554 18.8029 18.165 19.1472L20.0709 18.5408ZM19.5267 18.7233C19.9401 18.3689 20.4936 18.0384 21.2112 17.7461L20.4566 15.8939C19.5902 16.2469 18.8384 16.6791 18.2251 17.2047L19.5267 18.7233ZM21.2053 17.7485C21.863 17.4854 22.705 17.336 23.7599 17.336V15.336C22.5269 15.336 21.4182 15.5092 20.4625 15.8915L21.2053 17.7485ZM23.7599 17.336C24.4858 17.336 25.0654 17.4289 25.5196 17.5879L26.1803 15.7001C25.4612 15.4484 24.6474 15.336 23.7599 15.336V17.336ZM25.5196 17.5879C25.9942 17.754 26.3475 17.9716 26.6088 18.2228L27.995 16.7812C27.4937 16.2991 26.879 15.9447 26.1803 15.7001L25.5196 17.5879ZM26.6225 18.2358C26.9075 18.4997 27.1011 18.7925 27.2201 19.1197L29.0997 18.4363C28.8667 17.7955 28.4883 17.2377 27.9813 16.7682L26.6225 18.2358ZM27.2295 19.1445C27.371 19.5037 27.4459 19.8991 27.4459 20.34H29.4459C29.4459 19.6662 29.3302 19.0203 29.0903 18.4115L27.2295 19.1445ZM27.4459 20.34C27.4459 21.0751 27.2788 21.7705 26.9388 22.4383L28.7211 23.3457C29.2024 22.4002 29.4459 21.3943 29.4459 20.34H27.4459ZM26.9422 22.4317C26.5679 23.1535 26.1052 23.8383 25.5516 24.4865L27.0723 25.7855C27.7213 25.0257 28.2706 24.2145 28.7177 23.3523L26.9422 22.4317ZM25.5584 24.4786C24.9869 25.1338 24.3737 25.7469 23.7186 26.3184L25.0333 27.8256C25.7568 27.1944 26.4343 26.5169 27.0655 25.7934L25.5584 24.4786ZM23.7278 26.3105C23.0365 26.8988 22.4106 27.4364 21.8502 27.923L23.1616 29.433C23.716 28.9516 24.3367 28.4185 25.0241 27.8335L23.7278 26.3105ZM21.9476 27.8484L20.8036 28.6184L21.9203 30.2776L23.0643 29.5076L21.9476 27.8484ZM20.3619 29.448V29.536H22.3619V29.448H20.3619ZM21.4598 30.5312L22.8018 30.3992L22.606 28.4088L21.264 28.5408L21.4598 30.5312ZM22.7039 30.404H26.4879V28.404H22.7039V30.404ZM27.4041 29.8048L28.4821 27.3408L26.6498 26.5392L25.5718 29.0032L27.4041 29.8048ZM27.5659 27.94H28.3139V25.94H27.5659V27.94ZM27.3217 27.064C27.364 27.4031 27.407 27.8032 27.4503 28.2653L29.4416 28.0787C29.3969 27.6022 29.3518 27.1809 29.3062 26.816L27.3217 27.064ZM27.4537 28.296C27.5109 28.7539 27.561 29.2194 27.604 29.6925L29.5958 29.5115C29.5508 29.0166 29.4983 28.5287 29.4382 28.048L27.4537 28.296ZM27.6043 29.6953C27.6475 30.1563 27.6835 30.6021 27.7121 31.0325L29.7077 30.8995C29.6777 30.4499 29.6403 29.9863 29.5956 29.5087L27.6043 29.6953ZM27.7123 31.0348C27.7409 31.4493 27.7539 31.7685 27.7539 32H29.7539C29.7539 31.7035 29.7376 31.3334 29.7076 30.8972L27.7123 31.0348ZM28.7539 31H18.6779V33H28.7539V31ZM19.6779 32V30.592H17.6779V32H19.6779ZM19.3405 31.341C19.726 31 20.1621 30.6082 20.6486 30.1659L19.3033 28.6861C18.8217 29.1238 18.3925 29.5094 18.0154 29.843L19.3405 31.341ZM20.6606 30.1548C21.1604 29.6853 21.6658 29.1798 22.1769 28.6386L20.7229 27.2654C20.2367 27.7802 19.7595 28.2573 19.2913 28.6972L20.6606 30.1548ZM22.1863 28.6286C22.7004 28.0692 23.2059 27.4805 23.7029 26.863L22.1449 25.609C21.674 26.1941 21.1968 26.7495 20.7136 27.2754L22.1863 28.6286ZM23.7029 26.863C24.2111 26.2317 24.6679 25.5895 25.0722 24.9364L23.3717 23.8836C23.0133 24.4625 22.6048 25.0376 22.1449 25.609L23.7029 26.863ZM25.0777 24.9274C25.4932 24.2402 25.8255 23.5372 26.0704 22.8187L24.1774 22.1733C23.9824 22.7454 23.7133 23.3185 23.3662 23.8926L25.0777 24.9274ZM26.0637 22.8377C26.3337 22.0954 26.4759 21.3491 26.4759 20.604H24.4759C24.4759 21.0909 24.3835 21.606 24.1841 22.1543L26.0637 22.8377ZM26.4759 20.604C26.4759 19.608 26.1996 18.7027 25.5658 17.9844L24.0661 19.3076C24.3122 19.5866 24.4759 19.9867 24.4759 20.604H26.4759ZM25.586 18.008C24.9343 17.2215 24.0177 16.876 22.9899 16.876V18.876C23.5462 18.876 23.8469 19.0438 24.0459 19.284L25.586 18.008ZM22.9899 16.876C22.7024 16.876 22.4269 16.8928 22.1665 16.93L22.4494 18.9099C22.5996 18.8885 22.7788 18.876 22.9899 18.876V16.876ZM22.1559 16.9316C21.9092 16.9696 21.6442 17.0328 21.3658 17.1146L21.9301 19.0334C22.1504 18.9686 22.3254 18.9291 22.46 18.9084L22.1559 16.9316ZM20.6753 17.8418L19.8613 21.2518L21.8066 21.7162L22.6206 18.3062L20.6753 17.8418Z" fill="#CCCCCC"/>
</svg>
